<svg width="36" height="33" viewBox="0 0 36 33" fill="none" xmlns="http://www.w3.org/2000/svg">
<path d="M28.1844 8.5973C31.9019 5.62328 35.9354 1.32954 35.2849 0.530271C34.6343 -0.268997 29.5599 2.70502 25.8424 5.69763C25.5078 5.97644 25.1732 6.23667 24.8572 6.4969C24.2066 6.38537 22.8497 6.16232 21.1211 5.88351C21.1397 5.88351 21.1769 5.88351 21.1954 5.88351L22.1992 5.08424C22.3293 4.9913 22.3293 4.78684 22.1992 4.65672L21.4185 3.69017C21.307 3.54146 21.1211 3.50429 20.991 3.61582L19.9872 4.41508C19.9872 4.41508 19.9129 4.52661 19.8943 4.60096L18.7233 5.53034C17.2549 5.2887 15.6563 5.02847 14.0764 4.76825L15.0615 3.98757C15.1916 3.89463 15.1916 3.69017 15.0615 3.56005L14.2809 2.5935C14.1693 2.44479 13.9834 2.40762 13.8533 2.51915L12.8496 3.31842C12.8496 3.31842 12.7753 3.42994 12.7567 3.50429L11.6228 4.3965C7.60789 3.74593 4.24353 3.22548 4.13201 3.26265C3.85319 3.35559 2.42194 4.58237 2.42194 4.58237C2.06878 4.86119 1.82714 5.12141 1.84573 5.15859C1.8829 5.19577 2.29183 4.91695 2.62641 4.65672L10.0057 7.35193C9.74547 7.59357 9.59677 7.81662 9.65253 7.89097C9.72688 7.98391 10.0615 7.81662 10.396 7.5378L10.4332 7.50063L11.883 8.03967C11.6414 8.26272 11.4927 8.48578 11.5485 8.56013C11.6228 8.65306 11.9574 8.48577 12.292 8.20696L13.6117 8.67165L14.411 9.24787C14.1136 9.50809 13.9091 9.76832 13.9649 9.84267C14.0392 9.93561 14.3738 9.76832 14.7084 9.48951H14.727L16.3069 10.6048C16.0095 10.865 15.805 11.1252 15.8794 11.1996C15.9537 11.2925 16.2883 11.1252 16.6229 10.8464L18.0727 11.8873C15.6006 13.9134 14.634 14.7312 12.7938 16.2182C10.9351 17.7052 9.24361 19.2666 7.88671 20.6607C5.69337 20.3261 1.36245 19.6012 1.36245 19.6012L0.247192 20.3447L4.94986 23.9879C4.68963 24.341 4.48517 24.6198 4.37364 24.8429C3.64872 25.512 3.22121 25.9581 3.27697 26.0325C3.33273 26.1068 3.85319 25.8094 4.63387 25.2518C4.87551 25.1775 5.21009 25.0102 5.6376 24.8057L8.18411 30.2519L9.16925 29.3411C9.16925 29.3411 9.42948 24.657 9.57818 22.5194C11.1767 21.5157 12.9983 20.3261 14.8942 19.0064C17.1991 17.1662 18.24 16.3855 20.3776 14.7126L21.0653 16.3483C20.7122 16.6457 20.4891 16.9246 20.5635 17.0175C20.6192 17.0918 20.9166 16.9617 21.2512 16.7201L22.0133 18.5231H21.9947C21.6415 18.8205 21.4185 19.1179 21.4929 19.1922C21.5486 19.2666 21.8646 19.1365 22.1806 18.8948L22.5709 19.7871L22.7568 21.1811C22.4036 21.4599 22.1806 21.7573 22.2549 21.8503C22.3107 21.9246 22.5524 21.8317 22.8312 21.6272L23.0356 23.17H22.9984C22.6453 23.4674 22.4222 23.7648 22.4966 23.8577C22.5524 23.9321 22.8126 23.8206 23.0914 23.6161L24.0951 31.4043C23.7791 31.6831 23.4074 32.0177 23.426 32.0549C23.4631 32.0921 23.7605 31.9062 24.1137 31.6274C24.1137 31.6274 25.6379 30.4935 25.768 30.2519C25.8238 30.1589 26.0468 26.7574 26.307 22.7053L27.4409 21.8131C27.4409 21.8131 27.5896 21.8131 27.6454 21.7759L28.6491 20.9767C28.7792 20.8837 28.7792 20.6793 28.6491 20.5491L27.8684 19.5826C27.7569 19.4339 27.571 19.3967 27.4409 19.5082L26.4557 20.2889C26.5487 18.6904 26.6416 17.0918 26.7346 15.5862L27.9056 14.6569C27.9056 14.6569 28.0543 14.6569 28.11 14.6197L29.1138 13.8204C29.2439 13.7275 29.2439 13.523 29.1138 13.3929L28.3331 12.4264C28.2216 12.2777 28.0357 12.2405 27.9056 12.352L26.9018 13.1513C26.9018 13.1513 26.9019 13.1884 26.8647 13.2256C26.9762 11.497 27.0506 10.1401 27.0877 9.47092C27.4037 9.21069 27.7383 8.95047 28.0915 8.67165L28.1844 8.5973Z" fill="#FF5722"/>
</svg>
