<svg width="40" height="33" viewBox="0 0 40 33" fill="none" xmlns="http://www.w3.org/2000/svg">
<path d="M9.52749 22.8344C5.3081 25.0464 0.531086 28.4665 0.995777 29.3959C1.47906 30.3067 7.01815 28.355 11.2561 26.143C11.6465 25.9386 12.0183 25.7527 12.39 25.5482C13.0034 25.7713 14.3045 26.2546 15.9402 26.8679C15.9217 26.8679 15.8845 26.8679 15.8659 26.8679L14.7321 27.4627C14.6019 27.5371 14.5462 27.723 14.6391 27.8903L15.2153 28.9869C15.3082 29.1542 15.4755 29.2286 15.6242 29.1542L16.7581 28.5594C16.7581 28.5594 16.851 28.4665 16.8696 28.3921L18.1893 27.7044C19.5834 28.2248 21.1076 28.7825 22.5946 29.3401L21.4793 29.9163C21.3492 29.9907 21.2935 30.1765 21.3864 30.3438L21.9626 31.4405C22.0556 31.6078 22.2229 31.6821 22.3716 31.6078L23.5054 31.013C23.5054 31.013 23.5984 30.92 23.6169 30.8457L24.8994 30.1765C28.7099 31.5706 31.907 32.7416 32.0371 32.723C32.316 32.6859 33.9702 31.7565 33.9702 31.7565C34.3606 31.552 34.658 31.3476 34.6394 31.2918C34.6208 31.2546 34.1561 31.4405 33.7844 31.645L27.0742 27.5929C27.3716 27.407 27.5761 27.2211 27.5203 27.1468C27.4645 27.0538 27.1114 27.1468 26.7211 27.3326H26.6839L25.3641 26.552C25.6429 26.3847 25.8288 26.1988 25.7917 26.1059C25.7359 26.0129 25.3828 26.1059 24.9924 26.2917L23.7842 25.5668L23.115 24.8605C23.4682 24.656 23.7099 24.4516 23.6541 24.3586C23.5983 24.2657 23.2452 24.3586 22.8548 24.5445H22.8362L21.4979 23.1318C21.8511 22.946 22.0928 22.7229 22.037 22.63C21.9812 22.537 21.6281 22.63 21.2377 22.8158L20.0109 21.5147C22.8363 20.0091 23.9329 19.3771 26.0333 18.2805C28.1523 17.1838 30.104 15.9756 31.7211 14.8603C33.8029 15.6224 37.9108 17.1652 37.9108 17.1652L39.1376 16.6447L35.2156 12.1651C35.5502 11.8677 35.7918 11.6261 35.9591 11.4402C36.7955 10.9198 37.316 10.5666 37.2603 10.4737C37.2231 10.3807 36.6468 10.5852 35.7732 10.9755C35.513 11.0127 35.1599 11.087 34.6952 11.2172L33.2453 5.38065L32.1115 6.08697C32.1115 6.08697 30.9591 10.641 30.4014 12.7042C28.6356 13.3733 26.6281 14.2098 24.5091 15.1206C21.8883 16.4775 20.7172 17.0537 18.3009 18.2805L17.9291 16.5332C18.3194 16.3288 18.5983 16.0685 18.5425 15.9756C18.4867 15.8827 18.1707 15.9756 17.8176 16.1243L17.4086 14.2098H17.4272C17.8176 13.9867 18.0964 13.7451 18.0407 13.6521C17.9849 13.5592 17.6689 13.6521 17.3157 13.8194L17.1113 12.8715L17.2042 11.4588C17.5945 11.2543 17.8733 10.9941 17.8176 10.9012C17.7804 10.8268 17.5202 10.864 17.2042 10.9941L17.2971 9.45134H17.3343C17.7247 9.22829 18.0035 8.98664 17.9477 8.87512C17.9105 8.80077 17.6317 8.83795 17.3157 8.98665L17.8176 1.16126C18.1893 0.956798 18.6169 0.696563 18.5983 0.659388C18.5797 0.622213 18.2451 0.733746 17.8362 0.956797C17.8362 0.956797 16.1261 1.77465 15.9402 1.9977C15.8659 2.09064 14.9923 5.38065 13.9514 9.30264L12.6688 9.9718C12.6688 9.9718 12.5387 9.95321 12.4644 9.9718L11.3305 10.5666C11.2004 10.6409 11.1446 10.8268 11.2376 10.9941L11.8138 12.0908C11.9067 12.2581 12.074 12.3324 12.2227 12.2581L13.338 11.6819C12.9291 13.2246 12.5201 14.786 12.1484 16.2358L10.8286 16.9236C10.8286 16.9236 10.6985 16.905 10.6242 16.9236L9.49034 17.5184C9.36022 17.5927 9.30443 17.7786 9.39737 17.9459L9.97358 19.0426C10.0665 19.2098 10.2338 19.2842 10.3825 19.2098L11.5164 18.615C11.5164 18.615 11.535 18.5779 11.5535 18.5593C11.126 20.2322 10.7729 21.5519 10.6056 22.2025C10.2339 22.3883 9.86207 22.5928 9.47173 22.7973L9.52749 22.8344Z" fill="#FF5722"/>
</svg>
