<svg width="232" height="212" viewBox="0 0 232 212" fill="none" xmlns="http://www.w3.org/2000/svg">
<path d="M41.5587 201.948C41.41 202.282 41.0755 202.468 40.7409 202.468C40.6108 202.468 40.4806 202.45 40.3691 202.394C38.7148 201.632 37.0977 200.832 35.5177 199.996C35.0716 199.754 34.9044 199.215 35.146 198.769C35.3876 198.323 35.9267 198.156 36.3728 198.397C37.897 199.215 39.4955 200.015 41.1126 200.758C41.5587 200.962 41.7632 201.502 41.5587 201.948ZM38.3988 61.4252C38.7148 61.0348 38.6405 60.4586 38.2501 60.1612C37.8598 59.8452 37.2836 59.9196 36.9862 60.3099C35.8523 61.7226 34.7557 63.1352 33.6962 64.5479C33.3988 64.9382 33.4731 65.5145 33.8635 65.8119C34.0307 65.942 34.2166 65.9977 34.4025 65.9977C34.6813 65.9977 34.9415 65.8676 35.1274 65.6446C36.1869 64.2505 37.2836 62.8378 38.3988 61.4438V61.4252ZM31.8002 195.739C30.2946 194.791 28.8262 193.788 27.4321 192.765C27.0232 192.468 26.4656 192.561 26.1682 192.951C25.8708 193.36 25.9637 193.918 26.354 194.215C27.7853 195.275 29.2909 196.297 30.8337 197.264C30.9824 197.357 31.1497 197.394 31.3169 197.394C31.6143 197.394 31.9117 197.245 32.079 196.966C32.3393 196.539 32.2277 195.981 31.8002 195.721V195.739ZM25.6105 77.4291C25.2016 77.1503 24.6254 77.2804 24.3652 77.6893C23.3614 79.2135 22.3949 80.7191 21.4655 82.2247C21.2053 82.6522 21.3354 83.2099 21.7629 83.4701C21.9116 83.563 22.0789 83.6002 22.2462 83.6002C22.5436 83.6002 22.841 83.4515 23.0083 83.1727C23.9377 81.6857 24.8856 80.1801 25.8708 78.6745C26.1496 78.2656 26.0381 77.6894 25.6105 77.4291ZM19.4952 185.851C19.142 185.498 18.5658 185.479 18.2127 185.851C17.8595 186.204 17.8409 186.78 18.2127 187.133C19.458 188.416 20.7778 189.661 22.1532 190.851C22.3205 191 22.5436 191.074 22.748 191.074C23.0083 191.074 23.2499 190.962 23.4358 190.758C23.7704 190.386 23.7146 189.81 23.3429 189.475C22.0045 188.323 20.722 187.096 19.5138 185.851H19.4952ZM50.9641 43.99C49.7373 45.3283 48.5477 46.648 47.3581 47.9677C47.0235 48.3395 47.0607 48.9157 47.4324 49.2503C47.5997 49.399 47.8228 49.4733 48.0272 49.4733C48.2689 49.4733 48.5291 49.3618 48.6964 49.1759C49.8674 47.8562 51.057 46.5365 52.2652 45.2168C52.5998 44.845 52.5812 44.2688 52.2094 43.9342C51.8377 43.5996 51.2615 43.6182 50.9269 43.99H50.9641ZM61.243 207.301C59.4958 206.929 57.7671 206.502 56.0757 206.056C55.5924 205.907 55.0905 206.223 54.9604 206.687C54.8303 207.171 55.1277 207.673 55.611 207.784C57.321 208.249 59.0869 208.658 60.8527 209.048C60.9085 209.048 60.9828 209.067 61.0386 209.067C61.4475 209.067 61.8378 208.769 61.9308 208.36C62.0423 207.877 61.7263 207.394 61.243 207.282V207.301ZM45.109 51.9269C44.7372 51.6109 44.161 51.6481 43.8264 52.0198C42.6554 53.3953 41.503 54.7708 40.3691 56.1277C40.0531 56.518 40.1089 57.0757 40.4806 57.4102C40.6479 57.5404 40.8524 57.6147 41.0569 57.6147C41.3171 57.6147 41.5773 57.5032 41.7632 57.2801C42.8785 55.9232 44.0309 54.5663 45.2019 53.1908C45.5179 52.8191 45.4807 52.2429 45.109 51.9083V51.9269ZM67.2097 28.6366C66.8565 28.2834 66.2803 28.2648 65.9271 28.618C64.626 29.882 63.362 31.1273 62.0981 32.3727C61.7449 32.7259 61.7449 33.3021 62.0981 33.6553C62.2653 33.8411 62.507 33.9155 62.73 33.9155C62.9531 33.9155 63.1947 33.8225 63.362 33.6553C64.6074 32.4099 65.8713 31.1645 67.1725 29.9191C67.5256 29.566 67.5442 28.9898 67.1911 28.6366H67.2097ZM51.0012 204.568C49.2912 204.011 47.6183 203.416 46.0012 202.803C45.5365 202.617 45.016 202.858 44.8302 203.323C44.6443 203.788 44.8859 204.308 45.3506 204.494C46.9863 205.126 48.6964 205.74 50.4436 206.297C50.5366 206.334 50.6295 206.334 50.7224 206.334C51.1128 206.334 51.4659 206.093 51.5775 205.702C51.7262 205.219 51.4659 204.717 51.0012 204.568ZM55.9456 41.3134C57.1538 40.0308 58.3805 38.7483 59.6445 37.4657C59.9977 37.1126 59.9791 36.5363 59.6445 36.1832C59.2913 35.83 58.7151 35.8486 58.3619 36.1832C57.098 37.4843 55.8526 38.7669 54.6444 40.0494C54.3098 40.4212 54.3098 40.9788 54.6816 41.3319C54.8489 41.4992 55.0719 41.5736 55.295 41.5736C55.5366 41.5736 55.7783 41.4806 55.9456 41.2948V41.3134ZM1.89273 143.657C2.39459 143.657 2.78493 143.266 2.80352 142.765C2.80352 141.017 2.89646 139.252 3.02657 137.486C3.06375 136.984 2.692 136.556 2.19013 136.519C1.70685 136.501 1.26075 136.854 1.22357 137.356C1.07487 139.159 1.00052 140.98 0.981934 142.765C0.981934 143.266 1.37227 143.675 1.87414 143.675L1.89273 143.657ZM3.50985 153.285C3.24962 151.575 3.06375 149.809 2.95222 148.044C2.91505 147.542 2.48753 147.17 1.98567 147.207C1.4838 147.244 1.11205 147.672 1.14922 148.174C1.26075 149.977 1.46521 151.798 1.72544 153.564C1.79979 154.01 2.17154 154.345 2.61765 154.345C2.65482 154.345 2.71058 154.345 2.74776 154.345C3.24962 154.27 3.5842 153.806 3.50985 153.322V153.285ZM2.59906 132.988C2.59906 132.988 2.692 132.988 2.72917 132.988C3.17527 132.988 3.56561 132.653 3.62138 132.207C3.86302 130.497 4.16042 128.731 4.51358 126.984C4.60652 126.5 4.29053 126.017 3.80725 125.924C3.32397 125.831 2.8407 126.147 2.74776 126.631C2.39459 128.415 2.0786 130.199 1.83696 131.947C1.76261 132.448 2.11578 132.895 2.59906 132.969V132.988ZM4.60652 122.486C4.60652 122.486 4.75522 122.523 4.82957 122.523C5.2385 122.523 5.59167 122.244 5.70319 121.854C6.13071 120.181 6.63257 118.452 7.17161 116.761C7.32032 116.277 7.06009 115.775 6.57681 115.627C6.09353 115.478 5.59167 115.738 5.44297 116.221C4.90392 117.95 4.40206 119.697 3.95595 121.407C3.82584 121.891 4.12324 122.393 4.60652 122.504V122.486ZM28.1199 74.641C28.3987 74.641 28.6961 74.5109 28.8634 74.2506C29.8671 72.8194 30.8894 71.3696 31.9489 69.9011C32.2463 69.4922 32.1534 68.9346 31.7445 68.6372C31.3355 68.3398 30.7779 68.4327 30.4805 68.8416C29.4024 70.3101 28.3801 71.7599 27.3764 73.2283C27.0976 73.6372 27.1905 74.1949 27.5994 74.4923C27.7481 74.6038 27.934 74.6596 28.1199 74.6596V74.641ZM12.8594 177.691C12.5806 177.282 12.023 177.17 11.5955 177.449C11.1865 177.728 11.075 178.286 11.3538 178.713C12.3576 180.2 13.4542 181.669 14.5881 183.063C14.774 183.286 15.0342 183.397 15.2944 183.397C15.4989 183.397 15.7033 183.323 15.8706 183.193C16.261 182.877 16.3167 182.301 16.0007 181.929C14.8855 180.572 13.826 179.141 12.8594 177.709V177.691ZM11.7256 102.337C11.8557 102.392 11.9672 102.411 12.0973 102.411C12.4505 102.411 12.7665 102.206 12.9152 101.89C13.6401 100.31 14.4022 98.7119 15.2015 97.0948C15.4245 96.6487 15.2386 96.1097 14.7925 95.8866C14.3464 95.6636 13.8074 95.8494 13.5843 96.2956C12.7665 97.9313 11.9858 99.5484 11.2609 101.147C11.0564 101.593 11.2609 102.132 11.707 102.337H11.7256ZM4.51358 158.471C4.40206 157.988 3.91878 157.672 3.4355 157.802C2.95222 157.914 2.65482 158.397 2.76635 158.88C3.17527 160.646 3.67714 162.412 4.23477 164.103C4.36488 164.475 4.71805 164.717 5.0898 164.717C5.18274 164.717 5.27568 164.717 5.36861 164.679C5.8333 164.531 6.09353 164.01 5.94483 163.546C5.40579 161.891 4.92251 160.181 4.51358 158.471ZM10.3129 105.589C9.84823 105.403 9.32778 105.627 9.1419 106.073C8.45416 107.764 7.80359 109.437 7.1902 111.091C7.02291 111.556 7.26455 112.076 7.72924 112.244C7.82218 112.281 7.93371 112.3 8.04523 112.3C8.41699 112.3 8.77015 112.076 8.90026 111.705C9.49507 110.069 10.127 108.415 10.8148 106.742C11.0007 106.277 10.7776 105.757 10.3315 105.571L10.3129 105.589ZM7.80359 168.471C7.59913 168.007 7.07868 167.802 6.61399 168.007C6.14929 168.211 5.94483 168.732 6.14929 169.196C6.87421 170.851 7.67348 172.486 8.5471 174.085C8.71439 174.382 9.01179 174.549 9.34637 174.549C9.49507 174.549 9.64377 174.512 9.77388 174.438C10.22 174.196 10.3687 173.657 10.127 173.211C9.2906 171.668 8.50992 170.088 7.80359 168.49V168.471ZM19.9599 86.4999C19.5324 86.2397 18.9748 86.3884 18.7145 86.8345C17.8037 88.4144 16.9301 89.9758 16.0751 91.5185C15.8334 91.9646 16.0007 92.5037 16.4468 92.7453C16.577 92.8197 16.7257 92.8568 16.8744 92.8568C17.1903 92.8568 17.5063 92.6896 17.6736 92.3922C18.5101 90.8494 19.3837 89.3066 20.2759 87.7452C20.5361 87.3177 20.3874 86.7601 19.9413 86.5185L19.9599 86.4999ZM194.163 179.754C192.602 180.628 191.04 181.464 189.479 182.301C189.033 182.542 188.866 183.081 189.107 183.527C189.275 183.825 189.591 184.011 189.907 184.011C190.055 184.011 190.204 183.973 190.334 183.899C191.895 183.063 193.475 182.208 195.055 181.334C195.483 181.092 195.65 180.535 195.409 180.107C195.167 179.68 194.609 179.512 194.182 179.754H194.163ZM175.129 189.401C173.494 190.144 171.877 190.869 170.259 191.576C169.795 191.78 169.59 192.301 169.795 192.765C169.943 193.1 170.278 193.304 170.631 193.304C170.743 193.304 170.873 193.286 170.984 193.23C172.62 192.524 174.256 191.78 175.892 191.037C176.338 190.832 176.542 190.293 176.338 189.847C176.133 189.401 175.594 189.197 175.148 189.401H175.129ZM184.739 184.754C183.141 185.572 181.542 186.353 179.962 187.115C179.516 187.338 179.33 187.877 179.535 188.323C179.683 188.639 180.018 188.825 180.353 188.825C180.483 188.825 180.613 188.788 180.743 188.732C182.341 187.951 183.94 187.17 185.557 186.353C186.003 186.13 186.17 185.591 185.947 185.144C185.724 184.698 185.185 184.512 184.739 184.754ZM145.296 200.907C143.586 201.446 141.876 201.948 140.185 202.431C139.701 202.561 139.423 203.063 139.571 203.546C139.683 203.937 140.055 204.197 140.445 204.197C140.519 204.197 140.612 204.197 140.687 204.16C142.397 203.676 144.107 203.156 145.835 202.617C146.319 202.468 146.579 201.966 146.43 201.483C146.281 201 145.78 200.739 145.296 200.888V200.907ZM165.352 193.658C163.698 194.345 162.044 194.996 160.389 195.628C159.925 195.814 159.683 196.334 159.869 196.799C159.999 197.152 160.352 197.375 160.705 197.375C160.817 197.375 160.928 197.357 161.04 197.319C162.694 196.687 164.367 196.018 166.021 195.33C166.486 195.145 166.709 194.606 166.505 194.159C166.319 193.695 165.78 193.472 165.334 193.676L165.352 193.658ZM155.408 197.505C153.716 198.119 152.044 198.695 150.371 199.271C149.906 199.438 149.646 199.94 149.795 200.423C149.925 200.795 150.278 201.037 150.65 201.037C150.742 201.037 150.835 201.037 150.947 200.981C152.638 200.405 154.33 199.829 156.021 199.215C156.486 199.048 156.728 198.528 156.56 198.063C156.393 197.598 155.873 197.357 155.408 197.524V197.505ZM203.401 174.401C201.858 175.33 200.334 176.222 198.81 177.115C198.383 177.356 198.234 177.914 198.475 178.341C198.643 178.639 198.94 178.787 199.256 178.787C199.405 178.787 199.572 178.75 199.702 178.657C201.245 177.765 202.788 176.854 204.331 175.925C204.758 175.665 204.888 175.107 204.647 174.68C204.386 174.252 203.829 174.122 203.401 174.364V174.401ZM221.283 162.746C219.814 163.769 218.346 164.772 216.877 165.776C216.468 166.055 216.357 166.613 216.636 167.04C216.803 167.3 217.1 167.43 217.379 167.43C217.546 167.43 217.732 167.375 217.881 167.282C219.349 166.278 220.836 165.274 222.305 164.233C222.714 163.955 222.807 163.378 222.528 162.969C222.249 162.56 221.673 162.468 221.264 162.746H221.283ZM231.19 156.668C230.892 156.278 230.316 156.185 229.926 156.482C228.495 157.56 227.063 158.601 225.632 159.642C225.223 159.94 225.13 160.497 225.428 160.906C225.613 161.148 225.874 161.278 226.152 161.278C226.338 161.278 226.524 161.222 226.692 161.111C228.123 160.07 229.573 159.01 231.004 157.932C231.394 157.635 231.487 157.059 231.19 156.668ZM212.435 168.732C210.929 169.717 209.442 170.665 207.937 171.613C207.509 171.873 207.379 172.43 207.658 172.858C207.825 173.137 208.122 173.286 208.42 173.286C208.587 173.286 208.754 173.248 208.903 173.155C210.409 172.207 211.914 171.241 213.42 170.256C213.847 169.977 213.959 169.419 213.68 169.01C213.401 168.601 212.844 168.471 212.435 168.75V168.732ZM82.34 209.959C80.5556 209.885 78.7897 209.773 77.0239 209.624C76.5035 209.55 76.0945 209.959 76.0574 210.442C76.0202 210.944 76.3919 211.372 76.8752 211.409C78.641 211.557 80.444 211.669 82.247 211.743H82.2842C82.7675 211.743 83.1578 211.372 83.195 210.888C83.2136 210.386 82.8233 209.959 82.34 209.94V209.959ZM91.0018 8.45043C91.3922 8.13444 91.4293 7.55822 91.1133 7.16788C90.7974 6.79613 90.2211 6.74037 89.8308 7.05636C88.4553 8.22738 87.0984 9.37982 85.7601 10.5322C85.3884 10.8668 85.3326 11.4245 85.6672 11.8148C85.8531 12.0193 86.0947 12.1308 86.3549 12.1308C86.5594 12.1308 86.7824 12.0564 86.9497 11.9077C88.288 10.7553 89.6449 9.60286 91.0204 8.43184L91.0018 8.45043ZM81.708 14.0639C80.3511 15.2535 79.0128 16.4431 77.7117 17.6327C77.3399 17.9673 77.3027 18.5435 77.6373 18.9153C77.8232 19.1197 78.0648 19.2127 78.3065 19.2127C78.5295 19.2127 78.734 19.1383 78.9199 18.9896C80.221 17.8 81.5593 16.629 82.9162 15.4394C83.288 15.1048 83.3251 14.5472 82.9906 14.1568C82.656 13.7851 82.0798 13.7479 81.708 14.0825V14.0639ZM135.036 203.825C133.307 204.271 131.579 204.699 129.869 205.108C129.385 205.219 129.088 205.702 129.199 206.186C129.292 206.595 129.664 206.892 130.073 206.892C130.147 206.892 130.203 206.892 130.277 206.873C132.006 206.464 133.753 206.037 135.501 205.591C135.984 205.461 136.281 204.977 136.151 204.494C136.021 204.011 135.519 203.713 135.055 203.844L135.036 203.825ZM92.9721 210.033C91.5966 210.07 90.2397 210.089 88.9014 210.089H87.656C87.1914 210.015 86.7453 210.479 86.7453 210.981C86.7453 211.483 87.1356 211.892 87.6375 211.892H88.9014C90.2583 211.892 91.6338 211.892 93.0279 211.836C93.5297 211.836 93.9201 211.409 93.9015 210.907C93.9015 210.405 93.4926 210.033 92.9721 210.033ZM71.745 209.067C69.9606 208.844 68.2134 208.583 66.4847 208.305C66.0015 208.23 65.5182 208.546 65.4438 209.048C65.3509 209.55 65.6855 210.015 66.1873 210.089C67.9346 210.386 69.719 210.647 71.522 210.87C71.5592 210.87 71.5963 210.87 71.6335 210.87C72.0796 210.87 72.47 210.535 72.5257 210.07C72.5815 209.569 72.2283 209.122 71.745 209.067ZM73.7525 21.2387C72.4328 22.4655 71.1131 23.6923 69.8305 24.9005C69.4773 25.2536 69.4588 25.8113 69.7933 26.183C69.9792 26.3689 70.2023 26.4618 70.4439 26.4618C70.667 26.4618 70.89 26.3875 71.0573 26.2202C72.3398 25.012 73.641 23.7852 74.9607 22.577C75.3325 22.2425 75.351 21.6662 75.0165 21.2945C74.6819 20.9227 74.1057 20.9041 73.7339 21.2387H73.7525ZM114.181 208.119C112.415 208.379 110.649 208.621 108.902 208.844C108.4 208.899 108.047 209.346 108.121 209.847C108.177 210.312 108.567 210.647 109.013 210.647C109.05 210.647 109.088 210.647 109.125 210.647C110.891 210.442 112.656 210.201 114.459 209.922C114.961 209.847 115.296 209.383 115.222 208.899C115.147 208.398 114.701 208.063 114.199 208.137L114.181 208.119ZM124.664 206.241C122.917 206.595 121.17 206.948 119.422 207.245C118.939 207.338 118.604 207.803 118.697 208.286C118.772 208.732 119.162 209.03 119.59 209.03C119.645 209.03 119.701 209.03 119.757 209.03C121.504 208.714 123.27 208.379 125.036 208.007C125.519 207.914 125.835 207.431 125.742 206.929C125.649 206.446 125.166 206.13 124.683 206.223L124.664 206.241ZM99.3662 0.346228C99.0503 -0.0441119 98.4741 -0.0998813 98.1023 0.216108C96.7082 1.34995 95.3141 2.4838 93.9573 3.61765C93.5669 3.93364 93.5112 4.50985 93.8457 4.90019C94.0316 5.12324 94.2918 5.23477 94.5521 5.23477C94.7565 5.23477 94.961 5.16042 95.1283 5.0303C96.4852 3.89646 97.8607 2.7812 99.2547 1.64736C99.6451 1.33137 99.7008 0.75515 99.3848 0.383397L99.3662 0.346228ZM103.586 209.401C101.801 209.569 100.035 209.699 98.2696 209.792C97.7677 209.829 97.396 210.256 97.4146 210.74C97.4517 211.223 97.8421 211.595 98.3068 211.595H98.3625C100.128 211.483 101.931 211.353 103.734 211.186C104.236 211.149 104.589 210.702 104.552 210.201C104.515 209.699 104.069 209.364 103.567 209.383L103.586 209.401Z" fill="#FF5722"/>
</svg>
